{
    "asset" : {
        "generator" : "Khronos glTF Blender I/O v1.6.16",
        "version" : "2.0"
    },
    "scene" : 0,
    "scenes" : [
        {
            "name" : "Scene",
            "nodes" : [
                0,
                1,
                2
            ]
        }
    ],
    "nodes" : [
        {
            "mesh" : 0,
            "name" : "Cube",
            "rotation" : [
                0,
                -0.7071067690849304,
                0,
                0.7071068286895752
            ]
        },
        {
            "mesh" : 1,
            "name" : "Floor",
            "scale" : [
                8,
                8,
                8
            ],
            "translation" : [
                0,
                -1,
                0
            ]
        },
        {
            "mesh" : 2,
            "name" : "Sky",
            "rotation" : [
                0,
                0,
                1,
                7.549790126404332e-08
            ],
            "scale" : [
                4,
                4,
                4
            ]
        }
    ],
    "materials" : [
        {
            "doubleSided" : true,
            "name" : "Joakim",
            "pbrMetallicRoughness" : {
                "baseColorTexture" : {
                    "index" : 0
                },
                "metallicFactor" : 0,
                "roughnessFactor" : 0.4000000059604645
            }
        },
        {
            "doubleSided" : true,
            "name" : "Grass",
            "pbrMetallicRoughness" : {
                "baseColorTexture" : {
                    "index" : 1
                },
                "metallicFactor" : 0,
                "roughnessFactor" : 0.5
            }
        },
        {
            "doubleSided" : true,
            "name" : "Sky",
            "pbrMetallicRoughness" : {
                "baseColorTexture" : {
                    "index" : 2
                },
                "metallicFactor" : 0
            }
        }
    ],
    "meshes" : [
        {
            "name" : "Cube",
            "primitives" : [
                {
                    "attributes" : {
                        "POSITION" : 0,
                        "NORMAL" : 1,
                        "TEXCOORD_0" : 2
                    },
                    "indices" : 3,
                    "material" : 0
                }
            ]
        },
        {
            "name" : "Plane",
            "primitives" : [
                {
                    "attributes" : {
                        "POSITION" : 4,
                        "NORMAL" : 5,
                        "TEXCOORD_0" : 6
                    },
                    "indices" : 7,
                    "material" : 1
                }
            ]
        },
        {
            "name" : "Cube.001",
            "primitives" : [
                {
                    "attributes" : {
                        "POSITION" : 8,
                        "NORMAL" : 9,
                        "TEXCOORD_0" : 10
                    },
                    "indices" : 11,
                    "material" : 2
                }
            ]
        }
    ],
    "textures" : [
        {
            "sampler" : 0,
            "source" : 0
        },
        {
            "sampler" : 0,
            "source" : 1
        },
        {
            "sampler" : 1,
            "source" : 2
        }
    ],
    "images" : [
        {
            "bufferView" : 4,
            "mimeType" : "image/png",
            "name" : "Joakim Retextured"
        },
        {
            "bufferView" : 9,
            "mimeType" : "image/jpeg",
            "name" : "Minecraft Grass"
        },
        {
            "bufferView" : 14,
            "mimeType" : "image/jpeg",
            "name" : "Super Mario Broth"
        }
    ],
    "accessors" : [
        {
            "bufferView" : 0,
            "componentType" : 5126,
            "count" : 3904,
            "max" : [
                1.1050000190734863,
                1,
                1.1050000190734863
            ],
            "min" : [
                -1,
                -1,
                -1
            ],
            "type" : "VEC3"
        },
        {
            "bufferView" : 1,
            "componentType" : 5126,
            "count" : 3904,
            "type" : "VEC3"
        },
        {
            "bufferView" : 2,
            "componentType" : 5126,
            "count" : 3904,
            "type" : "VEC2"
        },
        {
            "bufferView" : 3,
            "componentType" : 5123,
            "count" : 5220,
            "type" : "SCALAR"
        },
        {
            "bufferView" : 5,
            "componentType" : 5126,
            "count" : 4,
            "max" : [
                1,
                0,
                1
            ],
            "min" : [
                -1,
                0,
                -1
            ],
            "type" : "VEC3"
        },
        {
            "bufferView" : 6,
            "componentType" : 5126,
            "count" : 4,
            "type" : "VEC3"
        },
        {
            "bufferView" : 7,
            "componentType" : 5126,
            "count" : 4,
            "type" : "VEC2"
        },
        {
            "bufferView" : 8,
            "componentType" : 5123,
            "count" : 6,
            "type" : "SCALAR"
        },
        {
            "bufferView" : 10,
            "componentType" : 5126,
            "count" : 24,
            "max" : [
                64,
                64,
                64
            ],
            "min" : [
                -64,
                -64,
                -64
            ],
            "type" : "VEC3"
        },
        {
            "bufferView" : 11,
            "componentType" : 5126,
            "count" : 24,
            "type" : "VEC3"
        },
        {
            "bufferView" : 12,
            "componentType" : 5126,
            "count" : 24,
            "type" : "VEC2"
        },
        {
            "bufferView" : 13,
            "componentType" : 5123,
            "count" : 36,
            "type" : "SCALAR"
        }
    ],
    "bufferViews" : [
        {
            "buffer" : 0,
            "byteLength" : 46848,
            "byteOffset" : 0
        },
        {
            "buffer" : 0,
            "byteLength" : 46848,
            "byteOffset" : 46848
        },
        {
            "buffer" : 0,
            "byteLength" : 31232,
            "byteOffset" : 93696
        },
        {
            "buffer" : 0,
            "byteLength" : 10440,
            "byteOffset" : 124928
        },
        {
            "buffer" : 0,
            "byteLength" : 103176,
            "byteOffset" : 135368
        },
        {
            "buffer" : 0,
            "byteLength" : 48,
            "byteOffset" : 238544
        },
        {
            "buffer" : 0,
            "byteLength" : 48,
            "byteOffset" : 238592
        },
        {
            "buffer" : 0,
            "byteLength" : 32,
            "byteOffset" : 238640
        },
        {
            "buffer" : 0,
            "byteLength" : 12,
            "byteOffset" : 238672
        },
        {
            "buffer" : 0,
            "byteLength" : 16384,
            "byteOffset" : 238684
        },
        {
            "buffer" : 0,
            "byteLength" : 288,
            "byteOffset" : 255068
        },
        {
            "buffer" : 0,
            "byteLength" : 288,
            "byteOffset" : 255356
        },
        {
            "buffer" : 0,
            "byteLength" : 192,
            "byteOffset" : 255644
        },
        {
            "buffer" : 0,
            "byteLength" : 72,
            "byteOffset" : 255836
        },
        {
            "buffer" : 0,
            "byteLength" : 25927,
            "byteOffset" : 255908
        }
    ],
    "samplers" : [
        {
            "magFilter" : 9729,
            "minFilter" : 9987
        },
        {
            "magFilter" : 9729,
            "minFilter" : 9987,
            "wrapS" : 33071,
            "wrapT" : 33071
        }
    ],
    "buffers" : [
        {
            "byteLength" : 281836,
            "uri" : "data:application/octet-stream;base64,"
        }
    ]
}
